<?xml version="1.0" encoding="utf-8"?>
<!-- Generator: Adobe Illustrator 19.2.0, SVG Export Plug-In . SVG Version: 6.00 Build 0)  -->
<svg version="1.1" id="Layer_1" xmlns="http://www.w3.org/2000/svg" xmlns:xlink="http://www.w3.org/1999/xlink" x="0px" y="0px"
	 viewBox="0 0 280 250" enable-background="new 0 0 280 250" xml:space="preserve">
<g>
	<path fill="#F6901E" d="M231.8,155.3c-1.5-6.6-4.3-17.2-4-16.3c47.3-28.8,38.1-99.2-13.4-115.8L188,49.6
		c-6.2-8.6-13.3-9.6-13.3-9.6l34.7-34.7C284.5,19.3,298.6,120.3,231.8,155.3z"/>
	<path fill="#E33326" d="M75.6,162.7c0,0-40.1,2.4-56.8,9.9L5.3,186.3l91.3,29.4L75.6,162.7z"/>
	<path fill="#E33326" d="M95.2,56.8c-0.1-3.1-1.3-6.1-3.6-8.5c-4.9-4.9-12.8-4.9-17.7,0c-4.9,4.9-4.9,12.8,0,17.7
		c2.4,2.4,5.4,3.6,8.5,3.6L95.2,56.8z"/>
	
		<rect x="82.5" y="62.4" transform="matrix(0.7071 -0.7071 0.7071 0.7071 -20.0831 83.7794)" fill="#E33326" width="17.2" height="7.4"/>
	<path fill="#EE4523" d="M99.8,77.8l128.5,128.5l-32,32c-36.7,13.2-78.2,6-106.4-22.2c-28.1-28.1-35.3-69.5-22.3-106.1L99.8,77.8z"
		/>
	
		<rect x="185.1" y="202.8" transform="matrix(0.7071 -0.7071 0.7071 0.7071 -78.0192 225.8496)" fill="#AC2124" width="97" height="8.6"/>
	<path fill="#FBBB1F" d="M134.5,43.2c-11.4-0.6-28,7.6-42.4,22c-14.4,14.4-22.6,31-22,42.4L134.5,43.2z"/>
	<path fill="#E33326" d="M241.8,64.3c28.2,28.2,35.4,69.7,22.2,106.4l-35.7,35.7L99.8,77.8L135.7,42
		C172.4,28.9,213.7,36.2,241.8,64.3z"/>
	<path fill="#FFFFFF" d="M100.5,132.7c4.2,4.2,4.2,11.1,0,15.3l0,0c-4.2,4.2-11.1,4.2-15.3,0l0,0c-4.2-4.2-4.2-11.1,0-15.3l0,0
		C89.4,128.5,96.3,128.5,100.5,132.7L100.5,132.7z"/>
</g>
<g>
</g>
<g>
</g>
<g>
</g>
<g>
</g>
<g>
</g>
<g>
</g>
<g>
</g>
<g>
</g>
<g>
</g>
<g>
</g>
<g>
</g>
<g>
</g>
<g>
</g>
<g>
</g>
<g>
</g>
</svg>
